<svg width="169" height="122" viewBox="0 0 169 122" fill="none" xmlns="http://www.w3.org/2000/svg">
<path d="M151.651 31.3263C155.478 35.1542 156.679 39.5137 156.111 44.2461C155.533 49.0637 153.11 54.3113 149.554 59.7058C143.102 69.4936 133.242 79.3074 125.19 87.3217C124.362 88.1463 123.552 88.9518 122.768 89.7363C121.905 90.5994 121.095 91.4141 120.332 92.1815C117.363 95.1665 115.105 97.437 113.208 99.059C110.797 101.119 109.292 101.833 108.004 101.833C106.716 101.833 105.211 101.119 102.801 99.059C100.903 97.437 98.6452 95.1665 95.6771 92.1816C94.9139 91.4141 94.1037 90.5994 93.2406 89.7363C77.1111 73.6068 77.1111 47.4558 93.2406 31.3263C109.37 15.1968 135.521 15.1969 151.651 31.3263Z" stroke="#DABCB2" stroke-width="3"/>
<path d="M89.7362 31.3263C91.6098 33.1998 92.264 34.9025 92.2765 36.4929C92.2896 38.1426 91.6154 39.918 90.346 41.9066C89.0789 43.8916 87.3147 45.9443 85.3316 48.1436C84.9133 48.6075 84.4852 49.078 84.0514 49.5547C82.4581 51.3056 80.7901 53.1387 79.2637 55.0247C75.4021 59.796 72.0838 65.3264 72.9461 71.7054C73.7671 77.7798 78.3032 84.1168 88.4079 91.0077C72.2016 105.854 47.0202 105.43 31.3263 89.7362C15.1968 73.6068 15.1968 47.4557 31.3263 31.3263C47.4557 15.1968 73.6068 15.1968 89.7362 31.3263Z" fill="#314045" stroke="#314045" stroke-width="3"/>
</svg>
