<svg width="26" height="26" viewBox="0 0 26 26" fill="none" xmlns="http://www.w3.org/2000/svg">
<path d="M1.08331 1.08334H5.41665L8.31998 15.5892C8.41904 16.0879 8.69038 16.536 9.08649 16.8548C9.48259 17.1737 9.97823 17.3431 10.4866 17.3333H21.0166C21.5251 17.3431 22.0207 17.1737 22.4168 16.8548C22.8129 16.536 23.0842 16.0879 23.1833 15.5892L24.9166 6.50001H6.49998M10.8333 22.75C10.8333 23.3483 10.3483 23.8333 9.74998 23.8333C9.15167 23.8333 8.66665 23.3483 8.66665 22.75C8.66665 22.1517 9.15167 21.6667 9.74998 21.6667C10.3483 21.6667 10.8333 22.1517 10.8333 22.75ZM22.75 22.75C22.75 23.3483 22.265 23.8333 21.6666 23.8333C21.0683 23.8333 20.5833 23.3483 20.5833 22.75C20.5833 22.1517 21.0683 21.6667 21.6666 21.6667C22.265 21.6667 22.75 22.1517 22.75 22.75Z" stroke="#314045" stroke-width="2" stroke-linecap="round" stroke-linejoin="round"/>
</svg>
