<svg width="76" height="55" viewBox="0 0 76 55" fill="none" xmlns="http://www.w3.org/2000/svg">
<path d="M67.8001 14.7081C69.3334 16.2415 69.8046 17.95 69.5762 19.8534C69.3375 21.8418 68.323 24.0821 66.7494 26.4693C63.89 30.8071 59.5066 35.1709 55.865 38.7962C55.4936 39.166 55.1299 39.5281 54.7763 39.8817C54.3787 40.2792 54.0081 40.6519 53.6609 41.001C52.327 42.3423 51.3406 43.3341 50.5127 44.0417C49.4446 44.9546 48.9644 45.0953 48.7014 45.0953C48.4384 45.0953 47.9582 44.9546 46.8902 44.0417C46.0622 43.3341 45.0759 42.3423 43.742 41.001C43.3948 40.6519 43.0241 40.2792 42.6266 39.8816C35.6751 32.9301 35.6751 21.6596 42.6266 14.7081C49.578 7.75661 60.8486 7.75661 67.8001 14.7081Z" stroke="#DABCB2" stroke-width="3"/>
<path d="M39.8816 14.7081C40.6079 15.4344 40.7823 16.0052 40.7859 16.462C40.79 16.9782 40.5777 17.6185 40.0447 18.4535C39.514 19.2849 38.7606 20.1656 37.8662 21.1575C37.683 21.3606 37.4936 21.5687 37.3004 21.781C36.58 22.5726 35.8064 23.4227 35.1015 24.2937C33.3359 26.4752 31.6392 29.2071 32.0768 32.4439C32.4663 35.3258 34.4816 38.165 38.5288 41.1043C31.5373 46.806 21.2248 46.3984 14.7081 39.8817C7.75661 32.9302 7.75661 21.6596 14.7081 14.7081C21.6596 7.75664 32.9301 7.75664 39.8816 14.7081Z" fill="#314045" stroke="#314045" stroke-width="3"/>
</svg>
