<svg width="63" height="43" viewBox="0 0 63 43" fill="none" xmlns="http://www.w3.org/2000/svg">
<path fill-rule="evenodd" clip-rule="evenodd" d="M23.3247 32.8017V34.37V35.9382H22.6382V35.5574C22.4204 35.8398 22.09 36.0171 21.6409 36.0171C20.7555 36.0171 20.0615 35.3284 20.0615 34.37C20.0615 33.4124 20.7555 32.7229 21.6409 32.7229C22.09 32.7229 22.4204 32.9001 22.6382 33.1825V32.8017H23.3247ZM21.7263 33.3658C21.1321 33.3658 20.7684 33.8187 20.7684 34.37C20.7684 34.9213 21.1321 35.3742 21.7263 35.3742C22.2942 35.3742 22.6775 34.9408 22.6775 34.37C22.6775 33.7992 22.2942 33.3658 21.7263 33.3658ZM46.5243 34.37C46.5243 33.8187 46.888 33.3658 47.4822 33.3658C48.0508 33.3658 48.4334 33.7992 48.4334 34.37C48.4334 34.9408 48.0508 35.3742 47.4822 35.3742C46.888 35.3742 46.5243 34.9213 46.5243 34.37ZM49.0813 31.5422V34.37V35.9382H48.3941V35.5574C48.1763 35.8398 47.8459 36.0171 47.3968 36.0171C46.5114 36.0171 45.8174 35.3284 45.8174 34.37C45.8174 33.4124 46.5114 32.7229 47.3968 32.7229C47.8459 32.7229 48.1763 32.9001 48.3941 33.1825V31.5422H49.0813ZM31.8465 33.3335C32.2888 33.3335 32.5731 33.6091 32.6457 34.0943H31.0072C31.0806 33.6414 31.3573 33.3335 31.8465 33.3335ZM30.2874 34.37C30.2874 33.3921 30.9346 32.7229 31.8601 32.7229C32.7447 32.7229 33.3526 33.3921 33.3594 34.37C33.3594 34.4616 33.3526 34.5472 33.3458 34.6321H31.0012C31.1002 35.1969 31.5032 35.4005 31.9455 35.4005C32.2623 35.4005 32.5995 35.2818 32.8642 35.0722L33.2006 35.5777C32.8173 35.8992 32.3818 36.0171 31.9062 36.0171C30.9611 36.0171 30.2874 35.3674 30.2874 34.37ZM40.1498 34.37C40.1498 33.8187 40.5134 33.3658 41.1077 33.3658C41.6755 33.3658 42.0589 33.7992 42.0589 34.37C42.0589 34.9408 41.6755 35.3742 41.1077 35.3742C40.5134 35.3742 40.1498 34.9213 40.1498 34.37ZM42.7061 32.8017V34.37V35.9382H42.0196V35.5574C41.8011 35.8398 41.4714 36.0171 41.0223 36.0171C40.1369 36.0171 39.4428 35.3284 39.4428 34.37C39.4428 33.4124 40.1369 32.7229 41.0223 32.7229C41.4714 32.7229 41.8011 32.9001 42.0196 33.1825V32.8017H42.7061ZM36.2725 34.37C36.2725 35.3216 36.9394 36.0171 37.9571 36.0171C38.4327 36.0171 38.7495 35.9119 39.0927 35.6431L38.7631 35.0918C38.5052 35.2758 38.2346 35.3742 37.9367 35.3742C37.3885 35.3674 36.9855 34.9738 36.9855 34.37C36.9855 33.7661 37.3885 33.3726 37.9367 33.3658C38.2346 33.3658 38.5052 33.4642 38.7631 33.6482L39.0927 33.0969C38.7495 32.828 38.4327 32.7229 37.9571 32.7229C36.9394 32.7229 36.2725 33.4184 36.2725 34.37ZM44.2915 33.1825C44.4699 32.9069 44.7277 32.7229 45.1239 32.7229C45.263 32.7229 45.4611 32.7492 45.6131 32.8085L45.4014 33.4514C45.2562 33.3921 45.111 33.3726 44.9719 33.3726C44.5228 33.3726 44.2983 33.661 44.2983 34.18V35.9382H43.611V32.8017H44.2915V33.1825ZM26.7202 33.0511C26.3898 32.8348 25.9346 32.7229 25.4326 32.7229C24.6327 32.7229 24.1178 33.1037 24.1178 33.7271C24.1178 34.2385 24.5011 34.554 25.2073 34.6524L25.5316 34.6982C25.9082 34.7508 26.0858 34.8492 26.0858 35.0264C26.0858 35.269 25.8348 35.4072 25.3661 35.4072C24.8905 35.4072 24.5472 35.2563 24.3159 35.079L23.9923 35.61C24.3688 35.8857 24.8444 36.0171 25.3593 36.0171C26.2711 36.0171 26.7996 35.5905 26.7996 34.9934C26.7996 34.4421 26.3837 34.1537 25.6965 34.0553L25.3729 34.0087C25.0757 33.9697 24.8376 33.9111 24.8376 33.7008C24.8376 33.471 25.0621 33.3335 25.4386 33.3335C25.8416 33.3335 26.2318 33.4845 26.4231 33.6024L26.7202 33.0511ZM34.7468 33.1825C34.9245 32.9069 35.1823 32.7229 35.5785 32.7229C35.7176 32.7229 35.9157 32.7492 36.0677 32.8085L35.856 33.4514C35.7108 33.3921 35.5656 33.3726 35.4265 33.3726C34.9774 33.3726 34.7528 33.661 34.7528 34.18V35.9382H34.0663V32.8017H34.7468V33.1825ZM29.7195 32.8017H28.5967V31.8501H27.9026V32.8017H27.2622V33.4251H27.9026V34.8559C27.9026 35.5837 28.1869 36.0171 28.999 36.0171C29.2969 36.0171 29.6401 35.9255 29.8579 35.7745L29.6598 35.1902C29.4549 35.3081 29.2303 35.3674 29.0519 35.3674C28.7086 35.3674 28.5967 35.1571 28.5967 34.8424V33.4251H29.7195V32.8017ZM19.4543 33.9697V35.9382H18.7602V34.1927C18.7602 33.661 18.5356 33.3658 18.0669 33.3658C17.611 33.3658 17.2942 33.655 17.2942 34.1995V35.9382H16.6001V34.1927C16.6001 33.661 16.3695 33.3658 15.9136 33.3658C15.444 33.3658 15.1401 33.655 15.1401 34.1995V35.9382H14.4468V32.8018H15.134V33.1886C15.3919 32.8213 15.7215 32.7229 16.0587 32.7229C16.5411 32.7229 16.8844 32.9332 17.1021 33.2809C17.3932 32.8408 17.8091 32.7161 18.212 32.7229C18.9787 32.7296 19.4543 33.2284 19.4543 33.9697Z" fill="#231F20"/>
<path d="M36.8978 27.472H26.4926V8.89648H36.8978V27.472Z" fill="#FF5F00"/>
<path d="M27.1527 18.1847C27.1527 14.4165 28.9288 11.06 31.6945 8.8969C29.672 7.31514 27.1195 6.37105 24.3454 6.37105C17.7781 6.37105 12.4545 11.6601 12.4545 18.1847C12.4545 24.7092 17.7781 29.9983 24.3454 29.9983C27.1195 29.9983 29.672 29.0542 31.6945 27.4724C28.9288 25.3093 27.1527 21.9528 27.1527 18.1847Z" fill="#EB001B"/>
<path d="M50.9352 18.1847C50.9352 24.7092 45.6117 29.9983 39.0444 29.9983C36.2703 29.9983 33.7178 29.0542 31.6945 27.4724C34.461 25.3093 36.237 21.9528 36.237 18.1847C36.237 14.4165 34.461 11.06 31.6945 8.8969C33.7178 7.31514 36.2703 6.37105 39.0444 6.37105C45.6117 6.37105 50.9352 11.6601 50.9352 18.1847Z" fill="#F79E1B"/>
</svg>
