<svg width="62" height="43" viewBox="0 0 62 43" fill="none" xmlns="http://www.w3.org/2000/svg">
<path fill-rule="evenodd" clip-rule="evenodd" d="M28.4349 21.5093L28.7027 19.8013L28.1062 19.7874H25.2574L27.2372 7.18348C27.2434 7.14532 27.2633 7.10989 27.2924 7.08468C27.3217 7.05948 27.359 7.04565 27.398 7.04565H32.2014C33.7962 7.04565 34.8967 7.37878 35.4712 8.03639C35.7406 8.34488 35.9121 8.66735 35.9952 9.02208C36.0822 9.39438 36.0837 9.83912 35.9988 10.3817L35.9926 10.4211V10.7688L36.262 10.922C36.4888 11.0429 36.6691 11.1811 36.8073 11.3394C37.0377 11.6033 37.1867 11.9385 37.2497 12.3359C37.3148 12.7446 37.2933 13.2311 37.1867 13.7819C37.0638 14.4153 36.8651 14.9671 36.5968 15.4184C36.35 15.8344 36.0356 16.1794 35.6622 16.4467C35.3058 16.7008 34.8824 16.8936 34.4035 17.0171C33.9395 17.1383 33.4105 17.1996 32.8303 17.1996H32.4565C32.1892 17.1996 31.9296 17.2962 31.7258 17.4695C31.5214 17.6463 31.3862 17.888 31.3448 18.1523L31.3165 18.3061L30.8433 21.3166L30.8219 21.4271C30.8162 21.4621 30.8065 21.4795 30.7921 21.4913C30.7793 21.5021 30.761 21.5093 30.7431 21.5093H28.4349Z" fill="#28356A"/>
<path fill-rule="evenodd" clip-rule="evenodd" d="M36.5172 10.4614C36.503 10.5535 36.4865 10.6475 36.4681 10.7441C35.8347 14.0097 33.6674 15.1378 30.8996 15.1378H29.4902C29.1517 15.1378 28.8664 15.3846 28.8138 15.7198L27.8879 21.6169C27.8536 21.8371 28.0225 22.0354 28.2437 22.0354H30.7433C31.0393 22.0354 31.2907 21.8195 31.3373 21.5264L31.3619 21.399L31.8325 18.4003L31.8628 18.2358C31.9088 17.9417 32.1608 17.7257 32.4568 17.7257H32.8306C35.2523 17.7257 37.1482 16.7385 37.7023 13.8817C37.9337 12.6883 37.8139 11.6918 37.2014 10.991C37.0161 10.7797 36.7861 10.6043 36.5172 10.4614Z" fill="#298FC2"/>
<path fill-rule="evenodd" clip-rule="evenodd" d="M35.8545 10.196C35.7577 10.1677 35.6579 10.142 35.5555 10.1189C35.4525 10.0962 35.347 10.0762 35.2385 10.0587C34.8585 9.99701 34.4421 9.96777 33.9961 9.96777H30.2312C30.1384 9.96777 30.0503 9.9888 29.9716 10.0268C29.7979 10.1106 29.6689 10.2757 29.6376 10.4778L28.8367 15.5713L28.8137 15.7198C28.8663 15.3845 29.1517 15.1378 29.4902 15.1378H30.8995C33.6673 15.1378 35.8346 14.0091 36.468 10.7441C36.487 10.6474 36.5029 10.5534 36.5171 10.4613C36.3569 10.3759 36.1833 10.3029 35.9964 10.2407C35.9502 10.2253 35.9026 10.2105 35.8545 10.196Z" fill="#22284F"/>
<path fill-rule="evenodd" clip-rule="evenodd" d="M29.6376 10.4779C29.6689 10.2758 29.7978 10.1108 29.9715 10.0275C30.0509 9.98937 30.1384 9.96835 30.2312 9.96835H33.9961C34.442 9.96835 34.8584 9.99773 35.2384 10.0594C35.347 10.0768 35.4524 10.097 35.5554 10.1196C35.6578 10.1426 35.7577 10.1684 35.8545 10.1966C35.9026 10.211 35.9502 10.226 35.9968 10.2408C36.1837 10.3031 36.3574 10.3767 36.5176 10.4615C36.7061 9.25471 36.5161 8.43306 35.8663 7.68904C35.1498 6.86984 33.8568 6.51929 32.2022 6.51929H27.3986C27.0607 6.51929 26.7724 6.766 26.7201 7.10186L24.7194 19.8354C24.68 20.0872 24.8735 20.3145 25.1265 20.3145H28.092L29.6376 10.4779Z" fill="#28356A"/>
<path fill-rule="evenodd" clip-rule="evenodd" d="M14.2822 24.9761H10.7799C10.5402 24.9761 10.3364 25.1509 10.2989 25.3886L8.88245 34.4055C8.85433 34.5835 8.99161 34.7438 9.17134 34.7438H10.8433C11.083 34.7438 11.2868 34.5691 11.3243 34.3311L11.7062 31.899C11.7431 31.6609 11.9474 31.4861 12.1866 31.4861H13.2953C15.6023 31.4861 16.9337 30.3651 17.2815 28.144C17.4382 27.1721 17.2881 26.4087 16.8349 25.8739C16.3371 25.2867 15.4542 24.9761 14.2822 24.9761ZM14.686 28.2694C14.4945 29.5312 13.5343 29.5312 12.606 29.5312H12.0774L12.4482 27.1747C12.4703 27.0323 12.5931 26.9274 12.7365 26.9274H12.9788C13.6112 26.9274 14.2078 26.9274 14.516 27.2894C14.6999 27.5053 14.7562 27.8261 14.686 28.2694Z" fill="#28356A"/>
<path fill-rule="evenodd" clip-rule="evenodd" d="M24.8404 28.1606H23.1633C23.0204 28.1606 22.8969 28.2655 22.875 28.4079L22.8007 28.8789L22.6835 28.7082C22.3204 28.1791 21.5107 28.0022 20.7027 28.0022C18.8493 28.0022 17.2664 29.4116 16.9581 31.3886C16.7979 32.3747 17.0257 33.3178 17.583 33.9754C18.0941 34.58 18.8253 34.8321 19.6953 34.8321C21.1887 34.8321 22.0166 33.868 22.0166 33.868L21.9419 34.3359C21.9138 34.5148 22.051 34.6752 22.2298 34.6752H23.7404C23.9806 34.6752 24.1834 34.5004 24.2213 34.2623L25.1277 28.4989C25.1564 28.3215 25.0196 28.1606 24.8404 28.1606ZM22.5026 31.438C22.3408 32.3999 21.5804 33.0457 20.6104 33.0457C20.1235 33.0457 19.7343 32.8889 19.4843 32.5918C19.2364 32.2967 19.1423 31.8766 19.2211 31.4086C19.3722 30.4549 20.1454 29.7879 21.1006 29.7879C21.5768 29.7879 21.964 29.9469 22.219 30.2465C22.4745 30.5494 22.5759 30.9721 22.5026 31.438Z" fill="#28356A"/>
<path fill-rule="evenodd" clip-rule="evenodd" d="M33.6436 28.3049H31.9581C31.7973 28.3049 31.6463 28.3852 31.5552 28.5194L29.2307 31.9571L28.2454 28.6535C28.1834 28.4468 27.9935 28.3049 27.7784 28.3049H26.1223C25.9209 28.3049 25.7812 28.5024 25.8452 28.6926L27.7016 34.1623L25.9564 36.6361C25.8191 36.8309 25.9574 37.0988 26.1945 37.0988H27.8778C28.0376 37.0988 28.187 37.0206 28.2777 36.8891L33.8831 28.7651C34.0174 28.5708 33.8795 28.3049 33.6436 28.3049Z" fill="#28356A"/>
<path fill-rule="evenodd" clip-rule="evenodd" d="M39.262 24.9761H35.7593C35.5202 24.9761 35.3163 25.1509 35.2789 25.3886L33.8624 34.4055C33.8343 34.5835 33.9716 34.7438 34.1503 34.7438H35.9478C36.1146 34.7438 36.2574 34.6216 36.2836 34.4549L36.6856 31.899C36.7225 31.6609 36.9269 31.4861 37.166 31.4861H38.2742C40.5816 31.4861 41.9126 30.3651 42.2609 28.144C42.4181 27.1721 42.2671 26.4087 41.8138 25.8739C41.3165 25.2867 40.4342 24.9761 39.262 24.9761ZM39.6661 28.2694C39.475 29.5312 38.5148 29.5312 37.5859 29.5312H37.058L37.4293 27.1747C37.4512 27.0323 37.5731 26.9274 37.717 26.9274H37.9593C38.5912 26.9274 39.1883 26.9274 39.4966 27.2894C39.6804 27.5053 39.7362 27.8261 39.6661 28.2694Z" fill="#298FC2"/>
<path fill-rule="evenodd" clip-rule="evenodd" d="M49.8181 28.1606H48.142C47.9981 28.1606 47.8758 28.2655 47.8542 28.4079L47.7799 28.8789L47.6622 28.7082C47.2991 28.1791 46.49 28.0022 45.6818 28.0022C43.8285 28.0022 42.2462 29.4116 41.938 31.3886C41.7782 32.3747 42.005 33.3178 42.5621 33.9754C43.0743 34.58 43.8044 34.8321 44.6746 34.8321C46.1678 34.8321 46.9959 33.868 46.9959 33.868L46.9212 34.3359C46.893 34.5148 47.0302 34.6752 47.21 34.6752H48.7202C48.9593 34.6752 49.1631 34.5004 49.2006 34.2623L50.1074 28.4989C50.1351 28.3215 49.9978 28.1606 49.8181 28.1606ZM47.4803 31.438C47.3195 32.3999 46.558 33.0457 45.5881 33.0457C45.1021 33.0457 44.7119 32.8889 44.4619 32.5918C44.2142 32.2967 44.1209 31.8766 44.1987 31.4086C44.3509 30.4549 45.123 29.7879 46.0782 29.7879C46.5544 29.7879 46.9416 29.9469 47.1966 30.2465C47.4531 30.5494 47.5545 30.9721 47.4803 31.438Z" fill="#298FC2"/>
<path fill-rule="evenodd" clip-rule="evenodd" d="M51.6556 25.2239L50.2181 34.406C50.19 34.584 50.3272 34.7443 50.5059 34.7443H51.9511C52.1913 34.7443 52.395 34.5696 52.4319 34.3315L53.8494 25.315C53.8776 25.1369 53.7404 24.9761 53.5616 24.9761H51.9435C51.8006 24.9765 51.6777 25.0815 51.6556 25.2239Z" fill="#298FC2"/>
</svg>
