<svg width="62" height="43" viewBox="0 0 62 43" fill="none" xmlns="http://www.w3.org/2000/svg">
<path d="M57.0264 12.9997H54.6756C54.4183 12.9997 54.2106 12.7917 54.2106 12.5341V10.1511C54.2106 9.89349 54.4183 9.68555 54.6756 9.68555H57.0264C57.2837 9.68555 57.4914 9.89349 57.4914 10.1511V12.5341C57.4914 12.7917 57.2819 12.9997 57.0264 12.9997Z" fill="#BCCF00"/>
<path d="M53.8924 9.68547H52.2952C52.1206 9.68547 51.9791 9.54377 51.9791 9.36896V7.74961C51.9791 7.5748 52.1206 7.43311 52.2952 7.43311H53.8924C54.067 7.43311 54.2085 7.5748 54.2085 7.74961V9.36896C54.2085 9.54377 54.067 9.68547 53.8924 9.68547Z" fill="#BCCF00"/>
<path fill-rule="evenodd" clip-rule="evenodd" d="M6.97635 14.0613H10.3968C13.9184 14.0613 15.5579 15.6236 15.556 18.9745C15.556 22.3273 13.9165 23.8878 10.395 23.8878H6.42863V28.4606C6.42863 29.1672 6.20256 29.3935 5.49677 29.3935H5.26519C4.55941 29.3935 4.33334 29.1672 4.33334 28.4606V16.7074C4.33334 14.8765 5.1494 14.0613 6.97635 14.0613ZM10.3951 21.928C12.9719 21.928 13.4608 20.8901 13.4608 18.9745C13.4608 16.5234 12.3378 16.045 10.3969 16.045H7.36975C6.68419 16.045 6.43055 16.3008 6.43055 16.9853V21.928H10.3951ZM19.9634 17.4325C18.6088 17.4325 17.7578 17.6018 17.4362 17.668C16.8664 17.7913 16.6275 17.9495 16.6275 18.5991V18.785C16.6275 19.0389 16.6642 19.2156 16.7451 19.3389C16.8389 19.4842 16.9914 19.556 17.1954 19.556C17.2947 19.556 17.4105 19.5394 17.5483 19.5045C17.8736 19.4235 18.9158 19.2542 20.0535 19.2542C22.0991 19.2542 22.9336 19.821 22.9336 21.2122V22.4524H20.3531C17.0374 22.4524 15.4916 23.5731 15.4916 25.9763C15.4916 28.3097 17.087 29.5941 19.9818 29.5941C23.4225 29.5941 24.9572 28.4219 24.9572 25.7923V21.2122C24.9627 18.6672 23.3269 17.4325 19.9634 17.4325ZM22.9355 25.7224V24.1104H20.3788C18.324 24.1104 17.5226 24.633 17.5226 25.9763C17.5226 27.2019 18.3203 27.7963 19.9635 27.7963C22.4484 27.7963 22.9355 27.0363 22.9355 25.7224ZM36.3491 18.7151L33.6914 29.3586C32.9121 32.4795 31.5814 33.8191 29.0964 33.9811C29.0321 33.9866 28.9714 33.9903 28.9145 33.9903C28.3796 33.9903 28.2105 33.694 28.1113 33.2174L28.0653 33.0113C28.0194 32.7942 27.9918 32.5494 28.1186 32.3801C28.2418 32.2163 28.4605 32.1685 28.7987 32.1391C30.462 31.9679 31.0263 31.1969 31.5814 29.4506C31.3185 29.5389 31.0024 29.5867 30.6624 29.5867C28.8336 29.5867 28.3447 28.3115 27.933 26.7713L25.7384 18.7206C25.6649 18.4482 25.6171 18.1685 25.7587 17.9827C25.9002 17.7968 26.1777 17.7711 26.4571 17.7711H26.6427C27.3338 17.7711 27.5985 17.9753 27.7786 18.6433L29.9511 26.6241C30.2323 27.6196 30.5135 27.7889 31.2193 27.7889C31.7946 27.7889 32.1309 27.6104 32.3699 26.6296L34.2869 18.6488C34.4394 17.9864 34.7096 17.7729 35.4007 17.7729H35.6084C35.8859 17.7729 36.1616 17.7987 36.3068 17.9827C36.4502 18.163 36.4116 18.4409 36.3491 18.7151ZM51.9737 18.6746V15.6052C51.9737 14.3005 51.4425 14.065 50.0107 14.065H49.5604C48.1305 14.065 47.5993 14.3023 47.5993 15.6052V18.658C47.5975 18.6654 47.5975 18.6709 47.5975 18.6783V19.3462C47.5975 19.3571 47.597 19.3679 47.5966 19.3789C47.5961 19.3904 47.5956 19.4021 47.5956 19.4143V23.6761C47.5956 24.1969 47.4964 24.6109 47.2887 24.933C46.899 25.5347 46.1271 25.807 44.892 25.8089C43.6587 25.807 42.8867 25.5329 42.4971 24.933C42.2912 24.6109 42.1901 24.1951 42.1901 23.6743V19.4125C42.1901 19.4005 42.1897 19.3895 42.1892 19.3784C42.1888 19.3674 42.1883 19.3564 42.1883 19.3444V18.6764C42.1883 18.6727 42.1878 18.6695 42.1874 18.6663C42.1869 18.6631 42.1865 18.6599 42.1865 18.6562V15.6052C42.1865 14.3005 41.6553 14.065 40.2253 14.065H39.775C38.3451 14.065 37.8139 14.3023 37.8139 15.6052V18.6746V21.9041V23.6743C37.8139 24.9716 38.108 26.072 38.6722 26.9572C39.764 28.674 41.8777 29.5886 44.8828 29.5886H44.8938H44.9048C47.9099 29.5886 50.0236 28.674 51.1153 26.9572C51.6814 26.072 51.9737 24.9716 51.9737 23.6743V21.9041V18.6746Z" fill="url(#paint0_linear_24_722)"/>
<path d="M53.5819 17.4582L50.4151 17.4564C50.0696 17.4564 49.7902 17.1767 49.7902 16.8308L49.792 13.6215C49.792 13.2756 50.0714 12.9958 50.4169 12.9958L53.5838 12.9977C53.9293 12.9977 54.2087 13.2774 54.2087 13.6233L54.2069 16.8326C54.2087 17.1785 53.9275 17.4582 53.5819 17.4582Z" fill="#BCCF00"/>
<defs>
<linearGradient id="paint0_linear_24_722" x1="3.92219" y1="18.2673" x2="3.92219" y2="38.5406" gradientUnits="userSpaceOnUse">
<stop stop-color="#BCCF00"/>
<stop offset="1" stop-color="#438F29"/>
</linearGradient>
</defs>
</svg>
