<svg width="62" height="43" viewBox="0 0 62 43" fill="none" xmlns="http://www.w3.org/2000/svg">
<path d="M27.3125 29.1306H23.217L25.7786 14.2637H29.8739L27.3125 29.1306Z" fill="#15195A"/>
<path d="M42.1588 14.6271C41.351 14.3263 40.0697 13.9941 38.4855 13.9941C34.441 13.9941 31.5929 16.0185 31.5755 18.9126C31.5419 21.048 33.6146 22.234 35.1648 22.9459C36.7493 23.6735 37.288 24.1484 37.288 24.7968C37.2718 25.7928 36.0076 26.2519 34.8284 26.2519C33.1933 26.2519 32.3172 26.0152 30.9858 25.4611L30.4465 25.2236L29.8734 28.5609C30.8339 28.9716 32.6037 29.3361 34.441 29.3521C38.7383 29.3521 41.536 27.3591 41.5691 24.2749C41.5855 22.5825 40.491 21.2857 38.1314 20.226C36.6989 19.5458 35.8217 19.0871 35.8217 18.3911C35.8385 17.7584 36.5637 17.1103 38.1806 17.1103C39.5121 17.0786 40.4903 17.3789 41.2314 17.6795L41.6018 17.8374L42.1588 14.6271Z" fill="#15195A"/>
<path fill-rule="evenodd" clip-rule="evenodd" d="M49.4899 14.2637H52.6578L55.9618 29.1304H52.1698C52.1698 29.1304 51.7987 27.4222 51.6811 26.9003H46.4228C46.2707 27.2954 45.5633 29.1304 45.5633 29.1304H41.266L47.3493 15.4972C47.7708 14.5323 48.513 14.2637 49.4899 14.2637ZM49.2376 19.7041C49.2376 19.7041 47.9398 23.0097 47.6025 23.8638H51.0066C50.8382 23.1205 50.0627 19.5618 50.0627 19.5618L49.7764 18.2808C49.6559 18.6107 49.4816 19.0642 49.364 19.3701C49.2843 19.5774 49.2307 19.7169 49.2376 19.7041Z" fill="#15195A"/>
<path fill-rule="evenodd" clip-rule="evenodd" d="M5.47168 14.2637H12.061C12.9541 14.295 13.6788 14.5639 13.9147 15.5134L15.3465 22.3434C15.3467 22.3441 15.347 22.3447 15.3472 22.3454L15.7855 24.4015L19.7963 14.2637H24.127L17.6895 29.1148H13.3586L9.70833 16.1968C8.44884 15.5057 7.01141 14.9498 5.40427 14.5641L5.47168 14.2637Z" fill="#15195A"/>
</svg>
