<svg width="63" height="43" viewBox="0 0 63 43" fill="none" xmlns="http://www.w3.org/2000/svg">
<path d="M28.0095 29.1306H23.914L26.4756 14.2637H30.5709L28.0095 29.1306Z" fill="#15195A"/>
<path d="M42.8558 14.6271C42.048 14.3263 40.7667 13.9941 39.1824 13.9941C35.138 13.9941 32.2899 16.0185 32.2724 18.9126C32.2388 21.048 34.3116 22.234 35.8618 22.9459C37.4463 23.6735 37.9849 24.1483 37.9849 24.7968C37.9688 25.7928 36.7045 26.2519 35.5254 26.2519C33.8903 26.2519 33.0142 26.0152 31.6827 25.4611L31.1435 25.2236L30.5703 28.5609C31.5309 28.9716 33.3006 29.3361 35.138 29.3521C39.4353 29.3521 42.2329 27.3591 42.2661 24.2749C42.2824 22.5825 41.188 21.2857 38.8283 20.226C37.3959 19.5458 36.5187 19.0871 36.5187 18.3911C36.5355 17.7584 37.2606 17.1103 38.8776 17.1103C40.209 17.0786 41.1873 17.3789 41.9284 17.6795L42.2988 17.8374L42.8558 14.6271Z" fill="#15195A"/>
<path fill-rule="evenodd" clip-rule="evenodd" d="M50.1869 14.2637H53.3548L56.6588 29.1304H52.8667C52.8667 29.1304 52.4957 27.4222 52.3781 26.9003H47.1198C46.9677 27.2954 46.2602 29.1304 46.2602 29.1304H41.9629L48.0463 15.4972C48.4678 14.5323 49.21 14.2637 50.1869 14.2637ZM49.9346 19.7041C49.9346 19.7041 48.6367 23.0097 48.2994 23.8638H51.7036C51.5352 23.1205 50.7596 19.5618 50.7596 19.5618L50.4734 18.2808C50.3529 18.6107 50.1786 19.0642 50.061 19.3701C49.9813 19.5774 49.9277 19.7169 49.9346 19.7041Z" fill="#15195A"/>
<path fill-rule="evenodd" clip-rule="evenodd" d="M6.16864 14.2637H12.7579C13.6511 14.295 14.3758 14.5639 14.6116 15.5134L16.0435 22.3434C16.0437 22.3441 16.0439 22.3447 16.0441 22.3454L16.4824 24.4015L20.4933 14.2637H24.8239L18.3865 29.1148H14.0556L10.4053 16.1968C9.1458 15.5057 7.70837 14.9498 6.10123 14.5641L6.16864 14.2637Z" fill="#15195A"/>
<path fill-rule="evenodd" clip-rule="evenodd" d="M36.0786 37.2397C36.0241 37.2496 35.9549 37.2546 35.8707 37.2546C35.6381 37.2546 35.4723 37.1852 35.3733 37.0465C35.2743 36.9077 35.2248 36.7045 35.2248 36.437V31.873H35.8336V36.4816C35.8336 36.5807 35.8509 36.65 35.8856 36.6897C35.9202 36.7293 35.9598 36.7491 36.0044 36.7491H36.06C36.0774 36.7491 36.1033 36.7442 36.138 36.7343L36.2197 37.1951C36.1801 37.215 36.133 37.2298 36.0786 37.2397ZM34.2524 36.6376V37.1654H31.3718V32.2893H34.1781V32.8096H31.988V34.3408H33.8366V34.8686H31.988V36.6376H34.2524ZM38.5807 37.2546C38.8282 37.2546 39.0484 37.2174 39.2415 37.1431C39.4345 37.0688 39.6102 36.982 39.7686 36.8829L39.5533 36.4816C39.4196 36.5658 39.2798 36.6339 39.1338 36.686C38.9878 36.738 38.8282 36.764 38.655 36.764C38.3085 36.764 38.0276 36.6513 37.8123 36.4258C37.597 36.2003 37.477 35.8943 37.4522 35.5078H39.8874C39.8973 35.4632 39.9035 35.41 39.9059 35.348C39.9084 35.2861 39.9096 35.2229 39.9096 35.1585C39.9096 34.9008 39.8775 34.6679 39.8131 34.4598C39.7488 34.2516 39.656 34.0732 39.5347 33.9246C39.4135 33.7759 39.2625 33.6619 39.0818 33.5827C38.9012 33.5034 38.697 33.4637 38.4693 33.4637C38.2615 33.4637 38.061 33.5071 37.868 33.5938C37.675 33.6805 37.503 33.8056 37.352 33.9692C37.201 34.1327 37.0798 34.3322 36.9882 34.5675C36.8966 34.8029 36.8509 35.0693 36.8509 35.3666C36.8509 35.6639 36.8954 35.929 36.9845 36.1619C37.0736 36.3948 37.1961 36.5918 37.352 36.7529C37.5079 36.9139 37.691 37.0378 37.9014 37.1245C38.1117 37.2112 38.3382 37.2546 38.5807 37.2546ZM37.4447 35.0693H39.375C39.375 34.7026 39.297 34.4238 39.1411 34.233C38.9852 34.0423 38.7662 33.9469 38.4841 33.9469C38.3554 33.9469 38.2329 33.9717 38.1166 34.0212C38.0002 34.0708 37.8951 34.1439 37.801 34.2405C37.707 34.3371 37.629 34.4548 37.5672 34.5936C37.5053 34.7323 37.4645 34.8909 37.4447 35.0693ZM42.2259 37.2546C42.4437 37.2546 42.6516 37.2137 42.8495 37.132C43.0475 37.0502 43.2282 36.9375 43.3915 36.7937L43.1242 36.3849C43.0104 36.484 42.883 36.5695 42.7419 36.6414C42.6008 36.7132 42.4462 36.7491 42.2779 36.7491C42.1145 36.7491 41.9636 36.7157 41.825 36.6488C41.6864 36.5819 41.5689 36.4878 41.4723 36.3663C41.3758 36.2449 41.3004 36.1 41.2459 35.9315C41.1915 35.763 41.1642 35.5747 41.1642 35.3666C41.1642 35.1585 41.1927 34.9689 41.2496 34.798C41.3065 34.627 41.3845 34.4796 41.4835 34.3557C41.5825 34.2318 41.7013 34.1364 41.8398 34.0695C41.9784 34.0026 42.1294 33.9692 42.2927 33.9692C42.4363 33.9692 42.5662 33.9989 42.6825 34.0584C42.7988 34.1178 42.9089 34.1946 43.0129 34.2888L43.3247 33.8874C43.196 33.7734 43.0475 33.6743 42.8792 33.5901C42.711 33.5058 42.508 33.4637 42.2705 33.4637C42.0378 33.4637 41.8163 33.5058 41.606 33.5901C41.3956 33.6743 41.2113 33.7982 41.0529 33.9617C40.8945 34.1253 40.7683 34.3247 40.6742 34.5601C40.5802 34.7955 40.5332 35.0643 40.5332 35.3666C40.5332 35.6639 40.5765 35.9303 40.6631 36.1657C40.7497 36.401 40.8685 36.5992 41.0195 36.7603C41.1704 36.9213 41.3498 37.044 41.5577 37.1282C41.7656 37.2125 41.9883 37.2546 42.2259 37.2546ZM45.5931 37.2137C45.4767 37.241 45.3617 37.2546 45.2478 37.2546C45.0548 37.2546 44.8927 37.2249 44.7615 37.1654C44.6304 37.1059 44.524 37.0242 44.4423 36.9201C44.3606 36.816 44.3025 36.6897 44.2678 36.541C44.2332 36.3924 44.2159 36.2288 44.2159 36.0504V34.0509H43.6813V33.5901L44.2456 33.5529L44.3198 32.542H44.8321V33.5529H45.8046V34.0509H44.8321V36.0579C44.8321 36.2809 44.8729 36.4531 44.9546 36.5745C45.0362 36.6959 45.181 36.7566 45.3889 36.7566C45.4532 36.7566 45.5225 36.7467 45.5968 36.7268C45.671 36.707 45.7378 36.6847 45.7972 36.6599L45.916 37.1208C45.817 37.1555 45.7094 37.1865 45.5931 37.2137ZM47.2299 37.1654V34.8463C47.3537 34.539 47.4984 34.3235 47.6642 34.1996C47.8301 34.0757 47.9897 34.0138 48.1431 34.0138C48.2174 34.0138 48.2792 34.0187 48.3287 34.0286C48.3782 34.0386 48.4327 34.0534 48.492 34.0732L48.6108 33.5381C48.497 33.4885 48.3683 33.4637 48.2248 33.4637C48.0169 33.4637 47.8251 33.5306 47.6494 33.6644C47.4737 33.7982 47.324 33.9791 47.2002 34.207H47.178L47.126 33.5529H46.6211V37.1654H47.2299ZM51.1612 37.1282C50.9607 37.2125 50.7492 37.2546 50.5264 37.2546C50.3037 37.2546 50.0921 37.2125 49.8917 37.1282C49.6912 37.044 49.5143 36.9213 49.3608 36.7603C49.2074 36.5992 49.0849 36.401 48.9933 36.1657C48.9018 35.9303 48.856 35.6639 48.856 35.3666C48.856 35.0643 48.9018 34.7955 48.9933 34.5601C49.0849 34.3247 49.2074 34.1253 49.3608 33.9617C49.5143 33.7982 49.6912 33.6743 49.8917 33.5901C50.0921 33.5058 50.3037 33.4637 50.5264 33.4637C50.7492 33.4637 50.9607 33.5058 51.1612 33.5901C51.3617 33.6743 51.5386 33.7982 51.692 33.9617C51.8455 34.1253 51.968 34.3247 52.0595 34.5601C52.1511 34.7955 52.1969 35.0643 52.1969 35.3666C52.1969 35.6639 52.1511 35.9303 52.0595 36.1657C51.968 36.401 51.8455 36.5992 51.692 36.7603C51.5386 36.9213 51.3617 37.044 51.1612 37.1282ZM50.5263 36.7491C50.3729 36.7491 50.2318 36.7157 50.1032 36.6488C49.9745 36.5819 49.8643 36.4877 49.7728 36.3663C49.6812 36.2449 49.6107 36.1 49.5612 35.9315C49.5117 35.763 49.4869 35.5747 49.4869 35.3666C49.4869 35.1585 49.5117 34.9689 49.5612 34.798C49.6107 34.627 49.6812 34.4796 49.7728 34.3557C49.8643 34.2318 49.9745 34.1364 50.1032 34.0695C50.2318 34.0026 50.3729 33.9692 50.5263 33.9692C50.6798 33.9692 50.8208 34.0026 50.9495 34.0695C51.0782 34.1364 51.1883 34.2318 51.2799 34.3557C51.3715 34.4796 51.442 34.627 51.4915 34.798C51.541 34.9689 51.5657 35.1585 51.5657 35.3666C51.5657 35.5747 51.541 35.763 51.4915 35.9315C51.442 36.1 51.3715 36.2449 51.2799 36.3663C51.1883 36.4877 51.0782 36.5819 50.9495 36.6488C50.8208 36.7157 50.6798 36.7491 50.5263 36.7491ZM53.7559 34.549V37.1654H53.1472V33.5529H53.652L53.704 34.0732H53.7262C53.8995 33.8998 54.0814 33.7549 54.2719 33.6384C54.4625 33.522 54.684 33.4637 54.9364 33.4637C55.3175 33.4637 55.5959 33.5827 55.7716 33.8205C55.9473 34.0584 56.0352 34.4102 56.0352 34.876V37.1654H55.4264V34.9578C55.4264 34.6159 55.372 34.3693 55.2631 34.2182C55.1542 34.067 54.9809 33.9915 54.7434 33.9915C54.5553 33.9915 54.3895 34.0386 54.2459 34.1327C54.1024 34.2269 53.9391 34.3656 53.7559 34.549Z" fill="#15195A"/>
</svg>
