<svg width="62" height="43" viewBox="0 0 62 43" fill="none" xmlns="http://www.w3.org/2000/svg">
<path d="M36.8567 27.6987H26.3399V8.92383H36.8567V27.6987Z" fill="#6C6BBD"/>
<path d="M27.0075 18.3115C27.0075 14.503 28.8026 11.1104 31.598 8.92407C29.5538 7.32534 26.9739 6.37111 24.17 6.37111C17.5322 6.37111 12.1515 11.7169 12.1515 18.3115C12.1515 24.9061 17.5322 30.252 24.17 30.252C26.9739 30.252 29.5538 29.2977 31.598 27.699C28.8026 25.5127 27.0075 22.1201 27.0075 18.3115Z" fill="#EB001B"/>
<path d="M51.0451 18.3115C51.0451 24.9061 45.6644 30.252 39.0266 30.252C36.2228 30.252 33.6428 29.2977 31.5979 27.699C34.394 25.5127 36.1891 22.1201 36.1891 18.3115C36.1891 14.503 34.394 11.1104 31.5979 8.92407C33.6428 7.32534 36.2228 6.37111 39.0266 6.37111C45.6644 6.37111 51.0451 11.7169 51.0451 18.3115Z" fill="#0099DF"/>
<path d="M40.4151 33.0039C40.5549 33.0039 40.7559 33.0305 40.9095 33.0905L40.6955 33.7403C40.5488 33.6803 40.4021 33.6606 40.2615 33.6606C39.8075 33.6606 39.5806 33.9521 39.5806 34.4759V36.2538H38.8859V33.0837H39.5737V33.4685C39.754 33.1899 40.0146 33.0039 40.4151 33.0039Z" fill="#231F20"/>
<path d="M37.8489 33.7137H36.7141V35.1462C36.7141 35.4643 36.8272 35.6768 37.1749 35.6768C37.3553 35.6768 37.5822 35.6169 37.7886 35.4977L37.9888 36.0875C37.7687 36.2401 37.4218 36.3335 37.1214 36.3335C36.2999 36.3335 36.0133 35.8955 36.0133 35.1591V33.7137H35.3653V33.0836H36.0133V32.1218H36.7141V33.0836H37.8489V33.7137Z" fill="#231F20"/>
<path fill-rule="evenodd" clip-rule="evenodd" d="M29.8234 33.0039C30.7183 33.0039 31.3327 33.6803 31.3396 34.6687C31.3396 34.7606 31.3328 34.8457 31.326 34.9316L31.3258 34.9337H28.956C29.0561 35.5038 29.4635 35.7095 29.9105 35.7095C30.2307 35.7095 30.5715 35.5903 30.8382 35.3778L31.1791 35.8887C30.7916 36.2136 30.3514 36.3327 29.8708 36.3327C28.9155 36.3327 28.2346 35.6761 28.2346 34.6687C28.2346 33.6803 28.8888 33.0039 29.8234 33.0039ZM29.8104 33.6204C29.316 33.6204 29.0363 33.9324 28.9622 34.3901H30.6182C30.5448 33.899 30.2575 33.6204 29.8104 33.6204Z" fill="#231F20"/>
<path d="M34.3902 33.8929C34.1969 33.7729 33.8033 33.6204 33.396 33.6204C33.0154 33.6204 32.7885 33.76 32.7885 33.9923C32.7885 34.2041 33.0284 34.2641 33.3287 34.3036L33.6558 34.3499C34.3505 34.4501 34.7708 34.7416 34.7708 35.2988C34.7708 35.9023 34.2366 36.3335 33.3157 36.3335C32.7946 36.3335 32.3139 36.2007 31.9333 35.922L32.2604 35.3846C32.4942 35.5637 32.8419 35.7163 33.3226 35.7163C33.7964 35.7163 34.0501 35.5774 34.0501 35.3314C34.0501 35.153 33.8698 35.0528 33.4892 35.0005L33.1621 34.9542C32.4476 34.8539 32.0602 34.5359 32.0602 34.0189C32.0602 33.3888 32.5814 33.0039 33.3891 33.0039C33.8965 33.0039 34.3573 33.117 34.6905 33.3357L34.3902 33.8929Z" fill="#231F20"/>
<path fill-rule="evenodd" clip-rule="evenodd" d="M43.6408 33.1322C43.4298 33.0465 43.2006 33.0039 42.953 33.0039C42.7054 33.0039 42.4761 33.0465 42.2652 33.1322C42.0543 33.2173 41.8732 33.3349 41.7203 33.4845C41.5675 33.634 41.4475 33.8109 41.3604 34.0143C41.2733 34.2186 41.2297 34.4402 41.2297 34.6794C41.2297 34.9185 41.2733 35.1401 41.3604 35.3444C41.4475 35.5478 41.5675 35.7254 41.7203 35.875C41.8732 36.0245 42.0543 36.1414 42.2652 36.2272C42.4761 36.3123 42.7054 36.3548 42.953 36.3548C43.2006 36.3548 43.4298 36.3123 43.6408 36.2272C43.8517 36.1414 44.0343 36.0245 44.1879 35.875C44.3423 35.7254 44.4623 35.5478 44.5494 35.3444C44.6365 35.1401 44.6801 34.9185 44.6801 34.6794C44.6801 34.4402 44.6365 34.2186 44.5494 34.0143C44.4623 33.8109 44.3423 33.634 44.1879 33.4845C44.0343 33.3349 43.8517 33.2173 43.6408 33.1322ZM42.5548 33.7335C42.6779 33.6841 42.8101 33.6591 42.953 33.6591C43.0959 33.6591 43.2289 33.6841 43.3511 33.7335C43.4742 33.7836 43.5812 33.8534 43.6706 33.943C43.7615 34.0326 43.8318 34.1404 43.8838 34.2656C43.935 34.3909 43.9602 34.529 43.9602 34.6794C43.9602 34.8304 43.935 34.9678 43.8838 35.0931C43.8318 35.2183 43.7615 35.3261 43.6706 35.4157C43.5812 35.5053 43.4742 35.5751 43.3511 35.6252C43.2289 35.6753 43.0959 35.6996 42.953 35.6996C42.8101 35.6996 42.6779 35.6753 42.5548 35.6252C42.4326 35.5751 42.3263 35.5053 42.2369 35.4157C42.1475 35.3261 42.0772 35.2183 42.026 35.0931C41.9748 34.9678 41.9496 34.8304 41.9496 34.6794C41.9496 34.529 41.9748 34.3909 42.026 34.2656C42.0772 34.1404 42.1475 34.0326 42.2369 33.943C42.3263 33.8534 42.4326 33.7836 42.5548 33.7335Z" fill="#231F20"/>
<path fill-rule="evenodd" clip-rule="evenodd" d="M27.4896 33.0836V36.2538H26.7957V35.8689C26.5748 36.1543 26.2416 36.3335 25.7877 36.3335C24.8928 36.3335 24.1921 35.6366 24.1921 34.6687C24.1921 33.7001 24.8928 33.0039 25.7877 33.0039C26.2416 33.0039 26.5748 33.1831 26.7957 33.4685V33.0836H27.4896ZM25.874 33.6538C25.2734 33.6538 24.9058 34.1115 24.9058 34.6687C24.9058 35.2259 25.2734 35.6829 25.874 35.6829C26.4479 35.6829 26.8354 35.2457 26.8354 34.6687C26.8354 34.0918 26.4479 33.6538 25.874 33.6538Z" fill="#231F20"/>
<path d="M23.5777 36.2538V34.2641C23.5777 33.5148 23.097 33.0108 22.3229 33.0039C21.9155 32.9971 21.4945 33.1231 21.201 33.568C20.9809 33.2165 20.6332 33.0039 20.1457 33.0039C19.8056 33.0039 19.4716 33.1034 19.211 33.4746V33.0837H18.5172V36.2538H19.2179V34.4964C19.2179 33.946 19.5251 33.6538 19.9989 33.6538C20.4597 33.6538 20.6936 33.9521 20.6936 34.4896V36.2538H21.3944V34.4964C21.3944 33.946 21.7153 33.6538 22.1754 33.6538C22.6499 33.6538 22.8769 33.9521 22.8769 34.4896V36.2538H23.5777Z" fill="#231F20"/>
</svg>
